<?xml version="1.0" encoding="utf-8"?>
<!-- Generator: Adobe Illustrator 15.0.2, SVG Export Plug-In . SVG Version: 6.00 Build 0)  -->
<!DOCTYPE svg PUBLIC "-//W3C//DTD SVG 1.1//EN" "http://www.w3.org/Graphics/SVG/1.1/DTD/svg11.dtd">
<svg version="1.1" id="Calque_1" xmlns="http://www.w3.org/2000/svg" xmlns:xlink="http://www.w3.org/1999/xlink" x="0px" y="0px"
	 width="180px" height="1044px" viewBox="0 0 180 1044" enable-background="new 0 0 180 1044" xml:space="preserve">
<g>
	<rect y="0" fill="#F1BE41" fill-opacity="0" width="180" height="1044"/>
	<g>
		<path fill="#B7B7B7" d="M25.082,4.685c4.736,0,7.918,3.176,7.918,7.902c0,5.29-4.35,8.86-8.591,12.344
			c-2.094,1.708-5.798,5.325-5.976,5.497l-0.437,0.451l-0.455-0.47c-0.155-0.153-3.856-3.772-5.964-5.486
			c-4.218-3.46-8.579-7.039-8.579-12.336c0-4.728,3.183-7.902,7.919-7.902c2.729,0,5.153,2.11,6.356,3.369l0.725,0.758l0.724-0.76
			C19.919,6.794,22.336,4.685,25.082,4.685 M25.082,3.685c-3.049,0-5.654,2.176-7.084,3.678c-1.436-1.502-4.033-3.678-7.079-3.678
			C5.669,3.685,2,7.343,2,12.587c0,5.774,4.551,9.504,8.957,13.119c2.086,1.696,5.887,5.418,5.887,5.418l1.11,1.146h0.089
			l1.11-1.146c0,0,3.805-3.72,5.888-5.418c4.4-3.613,8.959-7.34,8.959-13.119C34,7.343,30.335,3.685,25.082,3.685L25.082,3.685z"/>
	</g>
	<g>
		<path fill="#B7B7B7" d="M61.082,4.685c4.736,0,7.918,3.176,7.918,7.902c0,5.29-4.35,8.86-8.591,12.344
			c-2.094,1.708-5.798,5.325-5.976,5.497l-0.437,0.451l-0.455-0.47c-0.155-0.153-3.856-3.772-5.964-5.486
			c-4.218-3.46-8.579-7.039-8.579-12.336c0-4.728,3.183-7.902,7.919-7.902c2.729,0,5.153,2.11,6.356,3.369l0.725,0.758l0.724-0.76
			C55.919,6.794,58.336,4.685,61.082,4.685 M61.082,3.685c-3.049,0-5.654,2.176-7.084,3.678c-1.436-1.502-4.033-3.678-7.079-3.678
			c-5.25,0-8.919,3.658-8.919,8.902c0,5.774,4.551,9.504,8.957,13.119c2.086,1.696,5.887,5.418,5.887,5.418l1.11,1.146h0.089
			l1.11-1.146c0,0,3.805-3.72,5.888-5.418c4.4-3.613,8.959-7.34,8.959-13.119C70,7.343,66.335,3.685,61.082,3.685L61.082,3.685z"/>
	</g>
	<g>
		<path fill="#B7B7B7" d="M60.417,42.025c4.236,0,7.083,2.84,7.083,7.067c0,4.751-3.751,7.831-7.75,11.114
			c-1.902,1.551-5.262,4.83-5.425,4.989l-0.327,0.34l-0.347-0.359c-0.142-0.139-3.498-3.42-5.405-4.972
			C44.264,56.936,40.5,53.85,40.5,49.092c0-4.228,2.848-7.067,7.084-7.067c2.437,0,4.611,1.895,5.691,3.023L54,45.805l0.723-0.759
			C55.797,43.918,57.965,42.025,60.417,42.025 M60.417,41.025c-2.762,0-5.125,1.973-6.419,3.332
			c-1.301-1.359-3.654-3.332-6.414-3.332c-4.758,0-8.084,3.315-8.084,8.067c0,5.233,4.123,8.613,8.116,11.889
			c1.894,1.539,5.336,4.91,5.336,4.91l1.005,1.041h0.083l1.005-1.041c0,0,3.447-3.369,5.338-4.91
			c3.986-3.272,8.117-6.65,8.117-11.889C68.5,44.341,65.178,41.025,60.417,41.025L60.417,41.025z"/>
	</g>
	<g>
		<path fill="#B7B7B7" d="M59.752,79.365c3.737,0,6.248,2.507,6.248,6.234c0,4.207-3.339,6.95-6.908,9.883
			c-1.711,1.394-4.727,4.336-4.875,4.482l-0.219,0.227l-0.238-0.248c-0.127-0.124-3.139-3.07-4.863-4.47
			c-3.547-2.91-6.896-5.66-6.896-9.874c0-3.729,2.513-6.234,6.249-6.234c2.145,0,4.069,1.681,5.026,2.682l0.725,0.758l0.724-0.761
			C55.674,81.042,57.592,79.365,59.752,79.365 M59.752,78.365c-2.475,0-4.595,1.771-5.754,2.989
			c-1.166-1.22-3.277-2.989-5.749-2.989c-4.266,0-7.249,2.973-7.249,7.234c0,4.692,3.695,7.72,7.275,10.658
			c1.699,1.378,4.785,4.399,4.785,4.399l0.9,0.937h0.075l0.899-0.937c0,0,3.09-3.021,4.785-4.399
			c3.574-2.938,7.277-5.962,7.277-10.658C67,81.336,64.02,78.365,59.752,78.365L59.752,78.365z"/>
	</g>
	<g>
		<path fill="#B7B7B7" d="M59.088,116.702c3.237,0,5.412,2.17,5.412,5.4c0,3.664-2.928,6.072-6.027,8.621l-0.039,0.032
			c-1.521,1.232-4.19,3.842-4.328,3.976l-0.106,0.112l-0.129-0.136c-0.112-0.11-2.78-2.722-4.315-3.964
			c-3.112-2.556-6.054-4.971-6.054-8.643c0-3.23,2.175-5.4,5.412-5.4c1.853,0,3.528,1.466,4.363,2.337l0.725,0.761l0.724-0.763
			C55.551,118.165,57.219,116.702,59.088,116.702 M59.088,115.702c-2.188,0-4.064,1.567-5.09,2.646
			c-1.031-1.079-2.898-2.646-5.086-2.646c-3.773,0-6.412,2.629-6.412,6.4c0,4.152,3.268,6.828,6.436,9.43
			c1.505,1.218,4.234,3.892,4.234,3.892l0.797,0.83h0.066l0.795-0.83c0,0,2.732-2.672,4.235-3.892c3.161-2.6,6.437-5.272,6.437-9.43
			C65.5,118.331,62.863,115.702,59.088,115.702L59.088,115.702z"/>
	</g>
	<g>
		<path fill="#B7B7B7" d="M58.424,154.043c2.737,0,4.576,1.835,4.576,4.565c0,3.121-2.52,5.194-5.186,7.39l-0.039,0.033
			c-1.324,1.07-3.639,3.33-3.777,3.467l-0.021-0.021c-0.098-0.096-2.422-2.369-3.766-3.456C47.531,163.82,45,161.74,45,158.61
			c0-2.73,1.84-4.565,4.576-4.565c1.563,0,2.986,1.249,3.699,1.992L54,156.797l0.725-0.763
			C55.43,155.289,56.848,154.043,58.424,154.043 M58.424,153.043c-1.902,0-3.535,1.363-4.426,2.303
			c-0.896-0.938-2.521-2.303-4.422-2.303c-3.281,0-5.576,2.284-5.576,5.565c0,3.611,2.842,5.938,5.596,8.2
			c1.31,1.058,3.683,3.382,3.683,3.382l0.692,0.723h0.06l0.69-0.723c0,0,2.375-2.324,3.685-3.382c2.748-2.263,5.596-4.587,5.596-8.2
			C64,155.327,61.706,153.043,58.424,153.043L58.424,153.043z"/>
	</g>
	<g>
		<path fill="#B7B7B7" d="M57.76,191.383c2.237,0,3.74,1.5,3.74,3.731c0,2.582-2.115,4.324-4.384,6.192
			c-1.004,0.81-2.665,2.413-3.117,2.853c-0.405-0.395-2.099-2.031-3.131-2.864c-2.246-1.848-4.368-3.593-4.368-6.181
			c0-2.231,1.503-3.731,3.74-3.731c1.271,0,2.445,1.032,3.033,1.648l0.727,0.76l0.723-0.762
			C55.307,192.414,56.479,191.383,57.76,191.383 M57.76,190.383c-1.615,0-3.004,1.161-3.762,1.959
			c-0.762-0.798-2.145-1.959-3.758-1.959c-2.789,0-4.74,1.942-4.74,4.731c0,3.07,2.416,5.047,4.756,6.972
			c1.113,0.897,3.131,2.873,3.131,2.873l0.588,0.614h0.052l0.586-0.614c0,0,2.021-1.976,3.133-2.873
			c2.336-1.925,4.756-3.9,4.756-6.972C62.5,192.325,60.549,190.383,57.76,190.383L57.76,190.383z"/>
	</g>
	<g>
		<path fill="#B7B7B7" d="M57.096,228.724c1.736,0,2.903,1.164,2.903,2.896c0,2.043-1.71,3.452-3.545,4.965
			c-0.756,0.608-1.961,1.761-2.456,2.238c-0.474-0.458-1.693-1.627-2.469-2.251c-1.814-1.494-3.53-2.903-3.53-4.952
			c0-1.731,1.167-2.896,2.903-2.896c0.979,0,1.906,0.816,2.372,1.304l0.725,0.759l0.724-0.76
			C55.186,229.539,56.108,228.724,57.096,228.724 M57.096,227.724c-1.33,0-2.475,0.957-3.099,1.613
			c-0.627-0.656-1.766-1.613-3.095-1.613c-2.297,0-3.903,1.6-3.903,3.896c0,2.529,1.989,4.156,3.917,5.742
			c0.916,0.738,2.577,2.365,2.577,2.365l0.485,0.506h0.041l0.481-0.506c0,0,1.664-1.627,2.58-2.365
			c1.925-1.586,3.917-3.213,3.917-5.742C61,229.323,59.393,227.724,57.096,227.724L57.096,227.724z"/>
	</g>
	<g>
		<path fill="#B7B7B7" d="M56.434,266.065c1.254,0,2.065,0.809,2.065,2.062c0,1.506-1.307,2.58-2.706,3.732
			c-0.531,0.43-1.344,1.196-1.795,1.63c-0.439-0.424-1.259-1.199-1.803-1.638c-1.387-1.14-2.696-2.217-2.696-3.726
			c0-1.253,0.812-2.062,2.066-2.062c0.505,0,1.127,0.35,1.708,0.958l0.726,0.76l0.724-0.761
			C54.996,266.734,55.71,266.065,56.434,266.065 M56.434,265.065c-1.047,0-1.945,0.752-2.437,1.268
			c-0.491-0.516-1.388-1.268-2.432-1.268c-1.806,0-3.066,1.256-3.066,3.062c0,1.987,1.563,3.266,3.078,4.512
			c0.72,0.58,2.024,1.858,2.024,1.858l0.382,0.396h0.03l0.379-0.396c0,0,1.31-1.278,2.027-1.858
			c1.514-1.246,3.078-2.523,3.078-4.512C59.5,266.321,58.238,265.065,56.434,265.065L56.434,265.065z"/>
	</g>
	<g>
		<path fill="#B7B7B7" d="M55.77,303.405c0.759,0,1.229,0.471,1.229,1.228c0,0.901-0.702,1.546-1.866,2.503
			c-0.326,0.264-0.793,0.695-1.135,1.02c-0.335-0.317-0.806-0.756-1.138-1.022c-1.158-0.953-1.861-1.598-1.861-2.499
			c0-0.758,0.472-1.228,1.229-1.228c0.289,0,0.68,0.229,1.045,0.611l0.724,0.76l0.724-0.76
			C55.088,303.633,55.479,303.405,55.77,303.405 M55.77,302.405c-0.76,0-1.414,0.547-1.771,0.922
			c-0.357-0.375-1.01-0.922-1.768-0.922c-1.313,0-2.23,0.914-2.23,2.228c0,1.444,1.137,2.375,2.238,3.28
			c0.523,0.423,1.473,1.353,1.473,1.353l0.277,0.289h0.023l0.273-0.289c0,0,0.952-0.93,1.477-1.353
			c1.102-0.905,2.237-1.836,2.237-3.28C58,303.319,57.082,302.405,55.77,302.405L55.77,302.405z"/>
	</g>
	<g>
		<path fill="#B7B7B7" d="M52.895,340.743c0.041,0.002,0.193,0.071,0.379,0.266l0.722,0.76l0.726-0.756
			c0.188-0.197,0.344-0.268,0.385-0.27c0.271,0,0.396,0.125,0.396,0.394c0,0.397-0.388,0.746-1.024,1.271
			c-0.14,0.111-0.312,0.266-0.476,0.416c-0.163-0.149-0.335-0.304-0.474-0.415c-0.639-0.525-1.026-0.874-1.026-1.271
			C52.5,340.868,52.625,340.743,52.895,340.743 M55.105,339.743c-0.475,0-0.883,0.343-1.107,0.576
			c-0.223-0.233-0.631-0.576-1.104-0.576c-0.82,0-1.396,0.572-1.396,1.394c0,0.901,0.711,1.483,1.398,2.051
			c0.327,0.264,0.921,0.844,0.921,0.844l0.173,0.183h0.017l0.17-0.183c0,0,0.596-0.58,0.924-0.844
			c0.688-0.566,1.397-1.148,1.397-2.051C56.5,340.317,55.926,339.743,55.105,339.743L55.105,339.743z"/>
	</g>
	<g>
		<path fill="#F06292" d="M54.442,377.085c-0.188,0-0.354,0.137-0.443,0.229c-0.089-0.094-0.252-0.229-0.44-0.229
			c-0.328,0-0.559,0.229-0.559,0.557c0,0.361,0.284,0.594,0.561,0.82c0.131,0.104,0.367,0.338,0.367,0.338l0.069,0.071h0.007
			l0.067-0.071c0,0,0.237-0.232,0.369-0.338c0.274-0.228,0.56-0.459,0.56-0.82C55,377.314,54.77,377.085,54.442,377.085z"/>
	</g>
	<g>
		<path fill="#F06292" d="M55.105,411.743c-0.473,0-0.883,0.343-1.107,0.576c-0.223-0.233-0.631-0.576-1.104-0.576
			c-0.82,0-1.396,0.572-1.396,1.394c0,0.901,0.711,1.483,1.398,2.051c0.327,0.264,0.921,0.844,0.921,0.844l0.173,0.183h0.017
			l0.17-0.183c0,0,0.596-0.58,0.924-0.844c0.688-0.566,1.397-1.148,1.397-2.051C56.5,412.317,55.926,411.743,55.105,411.743z"/>
	</g>
	<g>
		<path fill="#F06292" d="M55.768,446.404c-0.756,0-1.411,0.547-1.771,0.922c-0.356-0.375-1.01-0.922-1.766-0.922
			c-1.313,0-2.231,0.916-2.231,2.229c0,1.442,1.139,2.375,2.237,3.28c0.524,0.423,1.474,1.351,1.474,1.351l0.276,0.291h0.024
			l0.271-0.291c0,0,0.953-0.928,1.479-1.351c1.101-0.905,2.237-1.838,2.237-3.28C58,447.32,57.081,446.404,55.768,446.404z"/>
	</g>
	<g>
		<path fill="#F06292" d="M56.432,481.063c-1.039,0-1.941,0.752-2.437,1.268c-0.489-0.516-1.389-1.268-2.428-1.268
			c-1.806,0-3.068,1.26-3.068,3.064c0,1.983,1.563,3.266,3.076,4.512c0.724,0.58,2.026,1.854,2.026,1.854l0.38,0.4h0.034l0.373-0.4
			c0,0,1.312-1.274,2.033-1.854c1.512-1.246,3.076-2.527,3.076-4.512C59.5,482.323,58.236,481.063,56.432,481.063z"/>
	</g>
	<g>
		<path fill="#F06292" d="M57.096,515.722c-1.322,0-2.472,0.957-3.101,1.612c-0.624-0.655-1.769-1.612-3.09-1.612
			c-2.297,0-3.905,1.604-3.905,3.899c0,2.525,1.991,4.156,3.915,5.742c0.921,0.738,2.579,2.361,2.579,2.361l0.482,0.51h0.046
			l0.475-0.51c0,0,1.668-1.623,2.589-2.361c1.924-1.586,3.914-3.217,3.914-5.742C61,517.324,59.391,515.722,57.096,515.722z"/>
	</g>
	<g>
		<path fill="#F06292" d="M57.758,550.381c-1.604,0-3,1.162-3.764,1.959c-0.758-0.797-2.146-1.959-3.752-1.959
			c-2.789,0-4.742,1.946-4.742,4.735c0,3.066,2.418,5.047,4.754,6.974c1.117,0.896,3.133,2.867,3.133,2.867l0.586,0.618h0.056
			l0.575-0.618c0,0,2.025-1.972,3.144-2.867c2.336-1.927,4.754-3.906,4.754-6.974C62.5,552.327,60.547,550.381,57.758,550.381z"/>
	</g>
	<g>
		<path fill="#F06292" d="M58.422,585.039c-1.89,0-3.529,1.367-4.429,2.306c-0.892-0.938-2.524-2.306-4.414-2.306
			c-3.28,0-5.579,2.291-5.579,5.572c0,3.607,2.846,5.938,5.594,8.203c1.313,1.055,3.685,3.373,3.685,3.373l0.69,0.729h0.063
			l0.678-0.729c0,0,2.384-2.318,3.697-3.373c2.748-2.266,5.593-4.596,5.593-8.203C64,587.33,61.702,585.039,58.422,585.039z"/>
	</g>
	<g>
		<path fill="#F06292" d="M59.084,619.698c-2.172,0-4.059,1.572-5.092,2.65c-1.025-1.078-2.904-2.65-5.076-2.65
			c-3.773,0-6.416,2.636-6.416,6.408c0,4.148,3.271,6.828,6.432,9.435c1.513,1.213,4.238,3.879,4.238,3.879l0.793,0.838h0.074
			l0.779-0.838c0,0,2.74-2.666,4.252-3.879c3.16-2.605,6.432-5.285,6.432-9.435C65.5,622.334,62.857,619.698,59.084,619.698z"/>
	</g>
	<g>
		<path fill="#F06292" d="M59.747,654.359c-2.455,0-4.588,1.777-5.756,2.996c-1.159-1.219-3.283-2.996-5.738-2.996
			c-4.266,0-7.253,2.979-7.253,7.244c0,4.689,3.698,7.719,7.271,10.664c1.709,1.371,4.789,4.385,4.789,4.385l0.897,0.947h0.084
			l0.882-0.947c0,0,3.098-3.014,4.807-4.385c3.572-2.945,7.271-5.975,7.271-10.664C67,657.337,64.012,654.359,59.747,654.359z"/>
	</g>
	<g>
		<path fill="#F06292" d="M60.41,689.018c-2.738,0-5.117,1.982-6.42,3.342c-1.293-1.359-3.662-3.342-6.4-3.342
			c-4.758,0-8.09,3.322-8.09,8.08c0,5.229,4.125,8.609,8.109,11.895c1.906,1.529,5.343,4.892,5.343,4.892l1.001,1.057h0.094
			l0.982-1.057c0,0,3.455-3.361,5.361-4.892c3.983-3.284,8.108-6.664,8.108-11.895C68.5,692.34,65.168,689.018,60.41,689.018z"/>
	</g>
	<g>
		<path fill="#F06292" d="M61.073,723.677c-3.021,0-5.646,2.188-7.084,3.688c-1.427-1.5-4.041-3.688-7.063-3.688
			c-5.25,0-8.927,3.666-8.927,8.916c0,5.771,4.552,9.5,8.948,13.125c2.104,1.688,5.896,5.396,5.896,5.396l1.104,1.166h0.104
			l1.084-1.166c0,0,3.813-3.709,5.916-5.396c4.396-3.625,8.948-7.354,8.948-13.125C70,727.343,66.323,723.677,61.073,723.677z"/>
	</g>
	<g>
		<path fill="#F06292" d="M60.41,761.018c-2.738,0-5.117,1.982-6.42,3.342c-1.293-1.359-3.662-3.342-6.4-3.342
			c-4.758,0-8.09,3.322-8.09,8.08c0,5.229,4.125,8.609,8.109,11.895c1.906,1.529,5.343,4.892,5.343,4.892l1.001,1.057h0.094
			l0.982-1.057c0,0,3.455-3.361,5.361-4.892c3.983-3.284,8.108-6.664,8.108-11.895C68.5,764.34,65.168,761.018,60.41,761.018z"/>
	</g>
	<g>
		<path fill="#F06292" d="M59.747,798.359c-2.455,0-4.588,1.777-5.756,2.996c-1.159-1.219-3.283-2.996-5.738-2.996
			c-4.266,0-7.253,2.979-7.253,7.244c0,4.689,3.698,7.719,7.271,10.664c1.709,1.371,4.789,4.385,4.789,4.385l0.897,0.947h0.084
			l0.882-0.947c0,0,3.098-3.014,4.807-4.385c3.572-2.945,7.271-5.975,7.271-10.664C67,801.337,64.012,798.359,59.747,798.359z"/>
	</g>
	<g>
		<path fill="#F06292" d="M59.084,835.698c-2.172,0-4.059,1.572-5.092,2.65c-1.025-1.078-2.904-2.65-5.076-2.65
			c-3.773,0-6.416,2.636-6.416,6.408c0,4.147,3.271,6.828,6.432,9.434c1.513,1.214,4.238,3.88,4.238,3.88l0.793,0.838h0.074
			l0.779-0.838c0,0,2.74-2.666,4.252-3.88c3.16-2.604,6.432-5.284,6.432-9.434C65.5,838.334,62.857,835.698,59.084,835.698z"/>
	</g>
	<g>
		<path fill="#F06292" d="M58.422,873.039c-1.89,0-3.529,1.367-4.429,2.306c-0.892-0.938-2.524-2.306-4.414-2.306
			c-3.28,0-5.579,2.291-5.579,5.572c0,3.607,2.846,5.938,5.594,8.203c1.313,1.055,3.685,3.373,3.685,3.373l0.69,0.729h0.063
			l0.678-0.729c0,0,2.384-2.318,3.697-3.373c2.748-2.266,5.593-4.596,5.593-8.203C64,875.33,61.702,873.039,58.422,873.039z"/>
	</g>
	<g>
		<path fill="#F06292" d="M59.083,907.698c-2.17,0-4.057,1.572-5.09,2.65c-1.026-1.078-2.905-2.65-5.076-2.65
			c-3.772,0-6.417,2.637-6.417,6.41c0,4.146,3.272,6.828,6.432,9.434c1.514,1.214,4.238,3.877,4.238,3.877l0.793,0.841h0.075
			l0.777-0.841c0,0,2.739-2.663,4.254-3.877c3.157-2.604,6.431-5.286,6.431-9.434C65.5,910.334,62.856,907.698,59.083,907.698z"/>
	</g>
	<g>
		<path fill="#F06292" d="M59.745,942.357c-2.45,0-4.584,1.777-5.752,2.996c-1.161-1.219-3.287-2.996-5.737-2.996
			c-4.267,0-7.256,2.982-7.256,7.248c0,4.687,3.7,7.719,7.27,10.664c1.713,1.371,4.791,4.381,4.791,4.381l0.896,0.951h0.088
			l0.877-0.951c0,0,3.098-3.01,4.812-4.381c3.567-2.945,7.269-5.979,7.269-10.664C67,945.339,64.012,942.357,59.745,942.357z"/>
	</g>
	<g>
		<path fill="#F06292" d="M60.407,977.015c-2.731,0-5.11,1.981-6.414,3.342c-1.296-1.358-3.668-3.342-6.399-3.342
			c-4.759,0-8.094,3.328-8.094,8.086c0,5.225,4.129,8.609,8.106,11.896c1.911,1.528,5.346,4.885,5.346,4.885l0.998,1.063h0.101
			l0.977-1.063c0,0,3.455-3.355,5.367-4.885c3.979-3.285,8.105-6.671,8.105-11.896C68.5,980.343,65.165,977.015,60.407,977.015z"/>
	</g>
	<g>
		<path fill="#F06292" d="M61.069,1011.673c-3.015,0-5.64,2.188-7.076,3.688c-1.431-1.5-4.049-3.688-7.063-3.688
			c-5.25,0-8.931,3.674-8.931,8.924c0,5.764,4.556,9.5,8.944,13.125c2.111,1.688,5.898,5.389,5.898,5.389l1.102,1.174h0.111
			l1.076-1.174c0,0,3.813-3.701,5.924-5.389c4.389-3.625,8.943-7.361,8.943-13.125C70,1015.347,66.319,1011.673,61.069,1011.673z"/>
	</g>
	<path fill="#B7B7B7" d="M97.082,3.685c-3.049,0-5.654,2.176-7.084,3.678c-1.436-1.502-4.033-3.678-7.079-3.678
		c-5.25,0-8.919,3.658-8.919,8.902c0,5.774,4.551,9.504,8.957,13.119c2.086,1.696,5.887,5.418,5.887,5.418l1.11,1.146h0.089
		l1.11-1.146c0,0,3.805-3.72,5.888-5.418c4.4-3.613,8.959-7.34,8.959-13.119C106,7.343,102.335,3.685,97.082,3.685z"/>
	<path fill="#F06292" d="M133.082,3.685c-3.049,0-5.654,2.176-7.084,3.678c-1.436-1.502-4.033-3.678-7.079-3.678
		c-5.25,0-8.919,3.658-8.919,8.902c0,5.774,4.551,9.504,8.957,13.119c2.086,1.696,5.887,5.418,5.887,5.418l1.11,1.146h0.089
		l1.11-1.146c0,0,3.805-3.72,5.888-5.418c4.4-3.613,8.959-7.34,8.959-13.119C142,7.343,138.335,3.685,133.082,3.685z"/>
</g>
</svg>
