<?xml version="1.0" encoding="utf-8"?>
<!-- Generator: Adobe Illustrator 15.0.0, SVG Export Plug-In . SVG Version: 6.00 Build 0)  -->
<!DOCTYPE svg PUBLIC "-//W3C//DTD SVG 1.1//EN" "http://www.w3.org/Graphics/SVG/1.1/DTD/svg11.dtd" [
	<!ENTITY ns_extend "http://ns.adobe.com/Extensibility/1.0/">
	<!ENTITY ns_ai "http://ns.adobe.com/AdobeIllustrator/10.0/">
	<!ENTITY ns_graphs "http://ns.adobe.com/Graphs/1.0/">
	<!ENTITY ns_vars "http://ns.adobe.com/Variables/1.0/">
	<!ENTITY ns_imrep "http://ns.adobe.com/ImageReplacement/1.0/">
	<!ENTITY ns_sfw "http://ns.adobe.com/SaveForWeb/1.0/">
	<!ENTITY ns_custom "http://ns.adobe.com/GenericCustomNamespace/1.0/">
	<!ENTITY ns_adobe_xpath "http://ns.adobe.com/XPath/1.0/">
]>
<svg version="1.1" id="Calque_1" xmlns:x="&ns_extend;" xmlns:i="&ns_ai;" xmlns:graph="&ns_graphs;"
	 xmlns="http://www.w3.org/2000/svg" xmlns:xlink="http://www.w3.org/1999/xlink" x="0px" y="0px" width="32px" height="32px"
	 viewBox="0 0 32 32" enable-background="new 0 0 32 32" xml:space="preserve">
<metadata>
	<sfw  xmlns="&ns_sfw;">
		<slices></slices>
		<sliceSourceBounds  height="32" width="32" y="-23.5" x="1.956" bottomLeftOrigin="true"></sliceSourceBounds>
	</sfw>
</metadata>
<g>
	<g>
		<path fill="#F5F6F6" d="M16,31.7C7.343,31.7,0.3,24.657,0.3,16S7.343,0.3,16,0.3S31.7,7.343,31.7,16S24.657,31.7,16,31.7z"/>
		<path fill="#3E83C4" d="M16,0.6c8.491,0,15.4,6.908,15.4,15.4c0,8.491-6.909,15.4-15.4,15.4C7.508,31.4,0.6,24.491,0.6,16
			C0.6,7.508,7.508,0.6,16,0.6 M16,0C7.164,0,0,7.164,0,16s7.164,16,16,16c8.837,0,16-7.164,16-16S24.837,0,16,0L16,0z"/>
	</g>
	<g>
		<g>
			<path fill="#3E83C4" d="M13.257,12.564c-0.152,0-0.286-0.107-0.309-0.257c-0.019-0.119-0.438-2.916,0.882-4.406
				C14.36,7.303,15.09,7,15.999,7s1.637,0.303,2.164,0.901c1.314,1.49,0.879,4.289,0.859,4.408
				c-0.026,0.164-0.182,0.274-0.355,0.252c-0.17-0.026-0.287-0.181-0.261-0.346c0.005-0.026,0.409-2.644-0.718-3.921
				c-0.409-0.463-0.962-0.689-1.689-0.689c-0.729,0-1.283,0.226-1.695,0.691c-1.137,1.281-0.742,3.894-0.738,3.92
				c0.025,0.165-0.092,0.32-0.263,0.344C13.287,12.563,13.271,12.564,13.257,12.564z"/>
		</g>
		<path fill="#3E83C4" d="M19.217,10.487c0.835,0,1.642,0.671,1.762,1.465l1.383,9.154c0.053,0.352-0.038,0.679-0.254,0.92
			c-0.218,0.241-0.54,0.374-0.909,0.374H10.802c-0.369,0-0.691-0.133-0.909-0.374c-0.216-0.241-0.307-0.568-0.254-0.92l1.383-9.154
			c0.12-0.794,0.927-1.465,1.762-1.465H19.217 M19.217,9.887h-6.434c-1.144,0-2.215,0.891-2.379,1.979l-1.383,9.154
			C8.856,22.109,9.658,23,10.802,23h10.396c1.144,0,1.945-0.891,1.78-1.979l-1.383-9.154C21.432,10.778,20.36,9.887,19.217,9.887
			L19.217,9.887z"/>
		<path fill="#3E83C4" d="M15.379,18.257c-0.074,0-0.148-0.025-0.208-0.076l-1.3-1.115c-0.128-0.11-0.14-0.3-0.024-0.424
			c0.114-0.124,0.312-0.133,0.44-0.023l1.079,0.927l2.11-2.028c0.122-0.117,0.318-0.117,0.44,0s0.122,0.307,0,0.424l-2.318,2.229
			C15.538,18.228,15.459,18.257,15.379,18.257z"/>
	</g>
</g>
</svg>
