<?xml version="1.0" encoding="utf-8"?>
<!-- Generator: Adobe Illustrator 15.0.2, SVG Export Plug-In . SVG Version: 6.00 Build 0)  -->
<!DOCTYPE svg PUBLIC "-//W3C//DTD SVG 1.1//EN" "http://www.w3.org/Graphics/SVG/1.1/DTD/svg11.dtd">
<svg version="1.1" id="Calque_1" xmlns="http://www.w3.org/2000/svg" xmlns:xlink="http://www.w3.org/1999/xlink" x="0px" y="0px"
	 width="36px" height="252px" viewBox="0 0 36 252" enable-background="new 0 0 36 252" xml:space="preserve">
<g>
	<g>
		<polygon fill="#2196F3" points="2.001,13.084 2.001,30 34.001,30 34.001,13.084 18,21.123 		"/>
		<polygon fill="#2196F3" points="2.001,6 2.001,10.501 18,18.539 34.001,10.501 34.001,6 		"/>
	</g>
	<g>
		<polygon fill="#2196F3" points="2.001,49.084 2.001,66 34.001,66 34.001,49.084 18,57.123 		"/>
		<polygon fill="#2196F3" points="2.001,42 2.001,46.501 18,54.539 34.001,46.501 34.001,42 		"/>
	</g>
	<g>
		<polygon fill="#2196F3" points="2.001,85.084 2.001,102 34.001,102 34.001,85.084 18,93.123 		"/>
		<polygon fill="#2196F3" points="2.001,78 2.001,82.501 18,90.539 34.001,82.501 34.001,78 		"/>
	</g>
	<g>
		<polygon fill="#2196F3" points="2.001,121.084 2.001,138 34.001,138 34.001,121.084 18,129.123 		"/>
		<polygon fill="#2196F3" points="2.001,114 2.001,118.501 18,126.539 34.001,118.501 34.001,114 		"/>
	</g>
	<g>
		<polygon fill="#2196F3" points="2.001,157.084 2.001,174 34.001,174 34.001,157.084 18,165.123 		"/>
		<polygon fill="#2196F3" points="2.001,150 2.001,154.502 18,162.539 34.001,154.502 34.001,150 		"/>
	</g>
	<g>
		<polygon fill="#2196F3" points="2.001,193.084 2.001,210 34.001,210 34.001,193.084 18,201.123 		"/>
		<polygon fill="#2196F3" points="2.001,186 2.001,190.502 18,198.539 34.001,190.502 34.001,186 		"/>
	</g>
	<g>
		<polygon fill="#2196F3" points="2.001,229.084 2.001,246 34.001,246 34.001,229.084 18,237.123 		"/>
		<polygon fill="#2196F3" points="2.001,222 2.001,226.502 18,234.539 34.001,226.502 34.001,222 		"/>
	</g>
	<circle fill="#F44336" cx="27.159" cy="42" r="0.5"/>
	<circle fill="#F44336" cx="27.159" cy="78" r="1"/>
	<circle fill="#F44336" cx="27.159" cy="114" r="1.5"/>
	<path fill="#F44336" d="M29.159,150c0,1.102-0.895,2-2,2s-2-0.898-2-2c0-1.105,0.895-2,2-2S29.159,148.895,29.159,150z"/>
	<path fill="#F44336" d="M29.659,186c0,1.377-1.118,2.5-2.5,2.5s-2.5-1.123-2.5-2.5c0-1.383,1.118-2.5,2.5-2.5
		S29.659,184.617,29.659,186z"/>
	<path fill="#F44336" d="M30.159,222c0,1.652-1.342,3-3,3s-3-1.348-3-3c0-1.658,1.342-3,3-3S30.159,220.342,30.159,222z"/>
	<rect fill="#607D8B" fill-opacity="0" width="36" height="252"/>
</g>
</svg>
