<?xml version="1.0" encoding="utf-8"?>
<!-- Generator: Adobe Illustrator 15.0.0, SVG Export Plug-In . SVG Version: 6.00 Build 0)  -->
<!DOCTYPE svg PUBLIC "-//W3C//DTD SVG 1.1//EN" "http://www.w3.org/Graphics/SVG/1.1/DTD/svg11.dtd" [
	<!ENTITY ns_extend "http://ns.adobe.com/Extensibility/1.0/">
	<!ENTITY ns_ai "http://ns.adobe.com/AdobeIllustrator/10.0/">
	<!ENTITY ns_graphs "http://ns.adobe.com/Graphs/1.0/">
	<!ENTITY ns_vars "http://ns.adobe.com/Variables/1.0/">
	<!ENTITY ns_imrep "http://ns.adobe.com/ImageReplacement/1.0/">
	<!ENTITY ns_sfw "http://ns.adobe.com/SaveForWeb/1.0/">
	<!ENTITY ns_custom "http://ns.adobe.com/GenericCustomNamespace/1.0/">
	<!ENTITY ns_adobe_xpath "http://ns.adobe.com/XPath/1.0/">
]>
<svg version="1.1" id="Calque_1" xmlns:x="&ns_extend;" xmlns:i="&ns_ai;" xmlns:graph="&ns_graphs;"
	 xmlns="http://www.w3.org/2000/svg" xmlns:xlink="http://www.w3.org/1999/xlink" x="0px" y="0px" width="32px" height="32px"
	 viewBox="0 0 32 32" enable-background="new 0 0 32 32" xml:space="preserve">
<metadata>
	<sfw  xmlns="&ns_sfw;">
		<slices></slices>
		<sliceSourceBounds  height="32" width="32" y="-23.5" x="1.956" bottomLeftOrigin="true"></sliceSourceBounds>
	</sfw>
</metadata>
<g>
	<g>
		<path fill="#F5F6F6" d="M16,31.7C7.343,31.7,0.3,24.657,0.3,16S7.343,0.3,16,0.3S31.7,7.343,31.7,16S24.657,31.7,16,31.7z"/>
		<path fill="#398F43" d="M16,0.6c8.491,0,15.4,6.908,15.4,15.4c0,8.491-6.909,15.4-15.4,15.4C7.508,31.4,0.6,24.491,0.6,16
			C0.6,7.508,7.508,0.6,16,0.6 M16,0C7.164,0,0,7.164,0,16s7.164,16,16,16c8.837,0,16-7.164,16-16S24.837,0,16,0L16,0z"/>
	</g>
	<g>
		<g>
			<g>
				<path fill="#398F43" d="M22.694,15.688h-2.262V8.313c0-0.126-0.074-0.24-0.189-0.289c-0.114-0.048-0.246-0.021-0.333,0.067
					l-0.866,0.885l-0.866-0.885c-0.119-0.122-0.313-0.122-0.432,0L16.88,8.977l-0.866-0.885c-0.119-0.122-0.313-0.122-0.432,0
					l-0.866,0.885L13.85,8.092c-0.119-0.122-0.313-0.122-0.432,0l-0.866,0.885l-0.866-0.885c-0.119-0.122-0.313-0.122-0.432,0
					l-0.866,0.885L9.521,8.092C9.403,7.97,9.211,7.97,9.092,8.09C9.029,8.153,8.998,8.237,9,8.321v14.054
					C9,23.271,9.713,24,10.59,24h10.821l0,0l0,0C22.287,24,23,23.271,23,22.375V16C23,15.827,22.862,15.688,22.694,15.688z
					 M10.59,23.375c-0.539,0-0.979-0.449-0.979-1V9.067l0.561,0.572c0.119,0.122,0.313,0.122,0.433,0l0.865-0.885l0.866,0.885
					c0.119,0.122,0.313,0.122,0.433,0l0.865-0.885L14.5,9.64c0.119,0.122,0.313,0.122,0.433,0l0.865-0.885l0.866,0.885
					c0.119,0.122,0.313,0.122,0.433,0l0.865-0.885l0.866,0.885c0.12,0.122,0.313,0.122,0.433,0l0.561-0.573V16
					c0,0.003,0,0.006,0,0.008v6.367c0,0.377,0.126,0.725,0.338,1H10.59z M22.389,22.375c0,0.551-0.439,1-0.978,1
					c-0.54,0-0.979-0.449-0.979-1v-6.063h1.956V22.375z"/>
			</g>
		</g>
		<g>
			<g>
				<path fill="#398F43" d="M14.717,12.964c-0.304,0-0.551-0.216-0.551-0.482c0-0.265,0.247-0.481,0.551-0.481
					c0.303,0,0.55,0.216,0.55,0.481c0,0.173,0.137,0.313,0.306,0.313s0.306-0.14,0.306-0.313c0-0.509-0.363-0.939-0.855-1.067
					v-0.211c0-0.173-0.138-0.313-0.306-0.313c-0.17,0-0.306,0.14-0.306,0.313v0.211c-0.493,0.128-0.856,0.558-0.856,1.067
					c0,0.61,0.521,1.107,1.162,1.107c0.303,0,0.55,0.216,0.55,0.481s-0.247,0.481-0.55,0.481c-0.304,0-0.551-0.216-0.551-0.481
					c0-0.172-0.137-0.313-0.306-0.313s-0.306,0.14-0.306,0.313c0,0.509,0.363,0.939,0.856,1.067v0.255
					c0,0.173,0.136,0.313,0.306,0.313c0.168,0,0.306-0.14,0.306-0.313v-0.255c0.492-0.128,0.855-0.558,0.855-1.067
					C15.878,13.46,15.356,12.964,14.717,12.964z"/>
			</g>
		</g>
		<g>
			<g>
				<path fill="#398F43" d="M17.787,12.964h-0.596c-0.169,0-0.306,0.14-0.306,0.313c0,0.172,0.137,0.313,0.306,0.313h0.596
					c0.17,0,0.306-0.14,0.306-0.313C18.093,13.104,17.957,12.964,17.787,12.964z"/>
			</g>
		</g>
		<g>
			<g>
				<path fill="#398F43" d="M12.241,12.964h-0.596c-0.169,0-0.306,0.14-0.306,0.313c0,0.172,0.137,0.313,0.306,0.313h0.596
					c0.169,0,0.306-0.14,0.306-0.313C12.547,13.104,12.41,12.964,12.241,12.964z"/>
			</g>
		</g>
		<g>
			<g>
				<path fill="#398F43" d="M17.941,16.438H13.1c-0.169,0-0.306,0.141-0.306,0.313c0,0.173,0.137,0.313,0.306,0.313h4.842
					c0.17,0,0.306-0.14,0.306-0.313C18.247,16.578,18.111,16.438,17.941,16.438z"/>
			</g>
		</g>
		<g>
			<g>
				<path fill="#398F43" d="M11.706,16.529c-0.057-0.058-0.135-0.092-0.216-0.092c-0.08,0-0.159,0.034-0.216,0.092
					c-0.057,0.059-0.09,0.139-0.09,0.221s0.033,0.163,0.09,0.221c0.057,0.059,0.136,0.092,0.216,0.092
					c0.081,0,0.159-0.033,0.216-0.092c0.058-0.058,0.09-0.139,0.09-0.221S11.764,16.588,11.706,16.529z"/>
			</g>
		</g>
		<g>
			<g>
				<path fill="#398F43" d="M17.941,18.5H13.1c-0.169,0-0.306,0.141-0.306,0.313c0,0.173,0.137,0.313,0.306,0.313h4.842
					c0.17,0,0.306-0.14,0.306-0.313C18.247,18.641,18.111,18.5,17.941,18.5z"/>
			</g>
		</g>
		<g>
			<g>
				<path fill="#398F43" d="M11.706,18.592c-0.057-0.059-0.135-0.092-0.216-0.092c-0.08,0-0.159,0.033-0.216,0.092
					s-0.09,0.139-0.09,0.221s0.033,0.163,0.09,0.221c0.057,0.059,0.136,0.092,0.216,0.092c0.081,0,0.159-0.033,0.216-0.092
					c0.058-0.058,0.09-0.139,0.09-0.221S11.764,18.65,11.706,18.592z"/>
			</g>
		</g>
		<g>
			<g>
				<path fill="#398F43" d="M17.941,20.563H13.1c-0.169,0-0.306,0.141-0.306,0.313c0,0.173,0.137,0.313,0.306,0.313h4.842
					c0.17,0,0.306-0.14,0.306-0.313C18.247,20.703,18.111,20.563,17.941,20.563z"/>
			</g>
		</g>
		<g>
			<g>
				<path fill="#398F43" d="M11.706,20.654c-0.057-0.059-0.135-0.092-0.216-0.092c-0.08,0-0.159,0.033-0.216,0.092
					s-0.09,0.139-0.09,0.221s0.033,0.163,0.09,0.221c0.057,0.059,0.136,0.092,0.216,0.092c0.081,0,0.159-0.033,0.216-0.092
					c0.058-0.058,0.09-0.139,0.09-0.221S11.764,20.713,11.706,20.654z"/>
			</g>
		</g>
	</g>
</g>
</svg>
