<?xml version="1.0" encoding="utf-8"?>
<!-- Generator: Adobe Illustrator 15.0.0, SVG Export Plug-In . SVG Version: 6.00 Build 0)  -->
<!DOCTYPE svg PUBLIC "-//W3C//DTD SVG 1.1//EN" "http://www.w3.org/Graphics/SVG/1.1/DTD/svg11.dtd" [
	<!ENTITY ns_extend "http://ns.adobe.com/Extensibility/1.0/">
	<!ENTITY ns_ai "http://ns.adobe.com/AdobeIllustrator/10.0/">
	<!ENTITY ns_graphs "http://ns.adobe.com/Graphs/1.0/">
	<!ENTITY ns_vars "http://ns.adobe.com/Variables/1.0/">
	<!ENTITY ns_imrep "http://ns.adobe.com/ImageReplacement/1.0/">
	<!ENTITY ns_sfw "http://ns.adobe.com/SaveForWeb/1.0/">
	<!ENTITY ns_custom "http://ns.adobe.com/GenericCustomNamespace/1.0/">
	<!ENTITY ns_adobe_xpath "http://ns.adobe.com/XPath/1.0/">
]>
<svg version="1.1" id="Calque_1" xmlns:x="&ns_extend;" xmlns:i="&ns_ai;" xmlns:graph="&ns_graphs;"
	 xmlns="http://www.w3.org/2000/svg" xmlns:xlink="http://www.w3.org/1999/xlink" x="0px" y="0px" width="32px" height="32px"
	 viewBox="0 0 32 32" enable-background="new 0 0 32 32" xml:space="preserve">
<metadata>
	<sfw  xmlns="&ns_sfw;">
		<slices></slices>
		<sliceSourceBounds  height="32" width="32" y="-23.5" x="1.956" bottomLeftOrigin="true"></sliceSourceBounds>
	</sfw>
</metadata>
<g>
	<path fill="#F5F6F6" d="M16,31.7C7.343,31.7,0.3,24.657,0.3,16S7.343,0.3,16,0.3S31.7,7.343,31.7,16S24.657,31.7,16,31.7z"/>
	<path fill="#465B65" d="M16,0.6c8.491,0,15.4,6.908,15.4,15.4c0,8.491-6.909,15.4-15.4,15.4C7.508,31.4,0.6,24.491,0.6,16
		C0.6,7.508,7.508,0.6,16,0.6 M16,0C7.164,0,0,7.164,0,16s7.164,16,16,16c8.837,0,16-7.164,16-16S24.837,0,16,0L16,0z"/>
</g>
<g>
	<path fill="#465B65" d="M19.947,8.642c0.801,0,1.453,0.624,1.453,1.39v12.021c0,0.766-0.652,1.39-1.453,1.39h-7.895
		c-0.801,0-1.452-0.624-1.452-1.39V10.031c0-0.766,0.651-1.39,1.452-1.39H19.947 M19.947,8.042h-7.895
		c-1.129,0-2.053,0.895-2.053,1.99v12.021c0,1.094,0.924,1.989,2.053,1.989h7.895c1.129,0,2.053-0.896,2.053-1.989V10.031
		C22,8.937,21.076,8.042,19.947,8.042L19.947,8.042z"/>
	<path fill="#465B65" d="M17.531,21.717h-5.464c-0.166,0-0.3-0.134-0.3-0.3s0.134-0.3,0.3-0.3h5.464c0.165,0,0.3,0.134,0.3,0.3
		S17.696,21.717,17.531,21.717z"/>
	<path fill="#465B65" d="M15.178,10.271h-3.11c-0.166,0-0.3-0.134-0.3-0.3s0.134-0.3,0.3-0.3h3.11c0.165,0,0.3,0.134,0.3,0.3
		S15.343,10.271,15.178,10.271z"/>
	<path fill="#465B65" d="M15.178,11.271h-3.11c-0.166,0-0.3-0.134-0.3-0.3s0.134-0.3,0.3-0.3h3.11c0.165,0,0.3,0.134,0.3,0.3
		S15.343,11.271,15.178,11.271z"/>
	<path fill="#465B65" d="M15.178,12.271h-3.11c-0.166,0-0.3-0.134-0.3-0.3s0.134-0.3,0.3-0.3h3.11c0.165,0,0.3,0.134,0.3,0.3
		S15.343,12.271,15.178,12.271z"/>
	<path fill="#465B65" d="M20.178,10.271h-3.11c-0.166,0-0.3-0.134-0.3-0.3s0.134-0.3,0.3-0.3h3.11c0.165,0,0.3,0.134,0.3,0.3
		S20.343,10.271,20.178,10.271z"/>
	<path fill="#465B65" d="M20.178,11.271h-3.11c-0.166,0-0.3-0.134-0.3-0.3s0.134-0.3,0.3-0.3h3.11c0.165,0,0.3,0.134,0.3,0.3
		S20.343,11.271,20.178,11.271z"/>
	<path fill="#465B65" d="M20.178,12.271h-3.11c-0.166,0-0.3-0.134-0.3-0.3s0.134-0.3,0.3-0.3h3.11c0.165,0,0.3,0.134,0.3,0.3
		S20.343,12.271,20.178,12.271z"/>
	<g>
		<g>
			<path fill="#465B65" d="M19.516,21.133c-0.188,0-0.341-0.131-0.341-0.293c0-0.161,0.152-0.292,0.341-0.292
				c0.188,0,0.341,0.131,0.341,0.292c0,0.105,0.085,0.189,0.189,0.189s0.189-0.084,0.189-0.189c0-0.31-0.225-0.569-0.53-0.646
				v-0.129c0-0.104-0.085-0.189-0.189-0.189c-0.105,0-0.189,0.085-0.189,0.189v0.129c-0.306,0.077-0.531,0.337-0.531,0.646
				c0,0.37,0.323,0.672,0.721,0.672c0.188,0,0.341,0.13,0.341,0.291c0,0.16-0.153,0.293-0.341,0.293
				c-0.188,0-0.341-0.133-0.341-0.293c0-0.104-0.086-0.189-0.19-0.189s-0.189,0.085-0.189,0.189c0,0.31,0.226,0.569,0.531,0.648
				v0.153c0,0.105,0.084,0.189,0.189,0.189c0.104,0,0.189-0.084,0.189-0.189v-0.153c0.306-0.079,0.53-0.339,0.53-0.648
				C20.235,21.434,19.913,21.133,19.516,21.133z"/>
		</g>
	</g>
	<path fill="#465B65" d="M20.212,19.362h-8.145c-0.166,0-0.3-0.134-0.3-0.3v-5.091c0-0.166,0.134-0.3,0.3-0.3h8.145
		c0.166,0,0.3,0.134,0.3,0.3v5.091C20.512,19.229,20.378,19.362,20.212,19.362z M12.367,18.763h7.545v-4.491h-7.545V18.763z"/>
	<path fill="#465B65" d="M14.574,19.362c-0.165,0-0.3-0.134-0.3-0.3v-5.098c0-0.166,0.135-0.3,0.3-0.3c0.166,0,0.3,0.134,0.3,0.3
		v5.098C14.874,19.229,14.74,19.362,14.574,19.362z"/>
	<path fill="#465B65" d="M17.574,19.362c-0.165,0-0.3-0.134-0.3-0.3v-5.098c0-0.166,0.135-0.3,0.3-0.3c0.166,0,0.3,0.134,0.3,0.3
		v5.098C17.874,19.229,17.74,19.362,17.574,19.362z"/>
</g>
</svg>
