<?xml version="1.0" encoding="utf-8"?>
<!-- Generator: Adobe Illustrator 15.0.0, SVG Export Plug-In . SVG Version: 6.00 Build 0)  -->
<!DOCTYPE svg PUBLIC "-//W3C//DTD SVG 1.1//EN" "http://www.w3.org/Graphics/SVG/1.1/DTD/svg11.dtd" [
	<!ENTITY ns_extend "http://ns.adobe.com/Extensibility/1.0/">
	<!ENTITY ns_ai "http://ns.adobe.com/AdobeIllustrator/10.0/">
	<!ENTITY ns_graphs "http://ns.adobe.com/Graphs/1.0/">
	<!ENTITY ns_vars "http://ns.adobe.com/Variables/1.0/">
	<!ENTITY ns_imrep "http://ns.adobe.com/ImageReplacement/1.0/">
	<!ENTITY ns_sfw "http://ns.adobe.com/SaveForWeb/1.0/">
	<!ENTITY ns_custom "http://ns.adobe.com/GenericCustomNamespace/1.0/">
	<!ENTITY ns_adobe_xpath "http://ns.adobe.com/XPath/1.0/">
]>
<svg version="1.1" id="Calque_1" xmlns:x="&ns_extend;" xmlns:i="&ns_ai;" xmlns:graph="&ns_graphs;"
	 xmlns="http://www.w3.org/2000/svg" xmlns:xlink="http://www.w3.org/1999/xlink" x="0px" y="0px" width="32px" height="32px"
	 viewBox="0 0 32 32" enable-background="new 0 0 32 32" xml:space="preserve">
<metadata>
	<sfw  xmlns="&ns_sfw;">
		<slices></slices>
		<sliceSourceBounds  height="32" width="32" y="-23.5" x="1.956" bottomLeftOrigin="true"></sliceSourceBounds>
	</sfw>
</metadata>
<g>
	<g>
		<path fill="#F5F6F6" d="M16,31.7C7.343,31.7,0.3,24.657,0.3,16S7.343,0.3,16,0.3S31.7,7.343,31.7,16S24.657,31.7,16,31.7z"/>
		<path fill="#F9A01B" d="M16,0.6c8.491,0,15.4,6.908,15.4,15.4c0,8.491-6.909,15.4-15.4,15.4C7.508,31.4,0.6,24.491,0.6,16
			C0.6,7.508,7.508,0.6,16,0.6 M16,0C7.164,0,0,7.164,0,16s7.164,16,16,16c8.837,0,16-7.164,16-16S24.837,0,16,0L16,0z"/>
	</g>
	<g>
		<path fill="#F9A01B" d="M15.704,14.3H10.3c-0.166,0-0.3-0.134-0.3-0.3s0.134-0.3,0.3-0.3h5.404c0.166,0,0.3,0.134,0.3,0.3
			S15.87,14.3,15.704,14.3z"/>
		<path fill="#F9A01B" d="M13.471,16.3H7.289C7.129,16.3,7,16.166,7,16s0.129-0.3,0.289-0.3h6.182c0.16,0,0.289,0.134,0.289,0.3
			S13.631,16.3,13.471,16.3z"/>
		<path fill="#F9A01B" d="M15.704,18.3H10.3c-0.166,0-0.3-0.134-0.3-0.3s0.134-0.3,0.3-0.3h5.404c0.166,0,0.3,0.134,0.3,0.3
			S15.87,18.3,15.704,18.3z"/>
		<path fill="#F9A01B" d="M21,8.6c0.771,0,1.4,0.629,1.4,1.4v12c0,0.771-0.629,1.4-1.4,1.4H11c-0.771,0-1.4-0.629-1.4-1.4V10
			c0-0.771,0.629-1.4,1.4-1.4H21 M21,8H11c-1.1,0-2,0.9-2,2v12c0,1.1,0.9,2,2,2h10c1.1,0,2-0.9,2-2V10C23,8.9,22.1,8,21,8L21,8z"/>
		<path fill="#F9A01B" d="M17,8h-2h-1v1v2c0,0.55,0.45,1,1,1h2c0.55,0,1-0.45,1-1V9V8H17z M17.4,9v2c0,0.217-0.184,0.4-0.4,0.4h-2
			c-0.217,0-0.4-0.184-0.4-0.4V9V8.6H15h2h0.4V9z"/>
	</g>
</g>
</svg>
