<?xml version="1.0" encoding="utf-8"?>
<!-- Generator: Adobe Illustrator 15.0.0, SVG Export Plug-In . SVG Version: 6.00 Build 0)  -->
<!DOCTYPE svg PUBLIC "-//W3C//DTD SVG 1.1//EN" "http://www.w3.org/Graphics/SVG/1.1/DTD/svg11.dtd" [
	<!ENTITY ns_extend "http://ns.adobe.com/Extensibility/1.0/">
	<!ENTITY ns_ai "http://ns.adobe.com/AdobeIllustrator/10.0/">
	<!ENTITY ns_graphs "http://ns.adobe.com/Graphs/1.0/">
	<!ENTITY ns_vars "http://ns.adobe.com/Variables/1.0/">
	<!ENTITY ns_imrep "http://ns.adobe.com/ImageReplacement/1.0/">
	<!ENTITY ns_sfw "http://ns.adobe.com/SaveForWeb/1.0/">
	<!ENTITY ns_custom "http://ns.adobe.com/GenericCustomNamespace/1.0/">
	<!ENTITY ns_adobe_xpath "http://ns.adobe.com/XPath/1.0/">
]>
<svg version="1.1" id="Calque_1" xmlns:x="&ns_extend;" xmlns:i="&ns_ai;" xmlns:graph="&ns_graphs;"
	 xmlns="http://www.w3.org/2000/svg" xmlns:xlink="http://www.w3.org/1999/xlink" x="0px" y="0px" width="32px" height="32px"
	 viewBox="0 0 32 32" enable-background="new 0 0 32 32" xml:space="preserve">
<metadata>
	<sfw  xmlns="&ns_sfw;">
		<slices></slices>
		<sliceSourceBounds  height="32" width="32" y="-23.5" x="1.956" bottomLeftOrigin="true"></sliceSourceBounds>
	</sfw>
</metadata>
<g>
	<g>
		<path fill="#F5F6F6" d="M16,31.7C7.343,31.7,0.3,24.657,0.3,16S7.343,0.3,16,0.3S31.7,7.343,31.7,16S24.657,31.7,16,31.7z"/>
		<path fill="#D81A61" d="M16,0.6c8.491,0,15.4,6.908,15.4,15.4c0,8.491-6.909,15.4-15.4,15.4C7.508,31.4,0.6,24.491,0.6,16
			C0.6,7.508,7.508,0.6,16,0.6 M16,0C7.164,0,0,7.164,0,16s7.164,16,16,16c8.837,0,16-7.164,16-16S24.837,0,16,0L16,0z"/>
	</g>
	<g>
		<path fill="#D81A61" d="M12.901,11.563l0.342,0.075c0.216,0.047,0.421,0.138,0.607,0.27l0.303,0.213l0.2,0.32
			c0.127,0.205,0.216,0.432,0.261,0.672l0.074,0.389l-0.074,0.387c-0.045,0.241-0.134,0.467-0.261,0.672l-0.2,0.32l-0.303,0.213
			c-0.187,0.133-0.392,0.223-0.607,0.271l-0.342,0.075l-0.343-0.076c-0.217-0.047-0.421-0.137-0.607-0.269l-0.3-0.212l-0.202-0.323
			c-0.129-0.205-0.218-0.431-0.263-0.671l-0.074-0.387l0.074-0.389c0.045-0.239,0.134-0.465,0.263-0.67l0.202-0.324l0.3-0.211
			c0.187-0.132,0.391-0.223,0.607-0.27L12.901,11.563 M13.371,10.502h-0.94v0.551c-0.3,0.064-0.579,0.191-0.825,0.365l-0.368-0.391
			l-0.665,0.706l0.368,0.391c-0.164,0.262-0.283,0.559-0.344,0.878h-0.519v1h0.519c0.061,0.318,0.18,0.615,0.344,0.877l-0.368,0.39
			l0.665,0.707l0.368-0.391c0.246,0.174,0.525,0.3,0.825,0.365v0.55h0.94v-0.55c0.299-0.065,0.578-0.191,0.825-0.365l0.367,0.391
			l0.665-0.707l-0.366-0.39c0.163-0.262,0.281-0.559,0.342-0.877h0.519v-1h-0.519c-0.061-0.319-0.179-0.616-0.342-0.878l0.366-0.391
			l-0.665-0.706l-0.367,0.391c-0.247-0.174-0.526-0.301-0.825-0.365V10.502L13.371,10.502z"/>
		<path fill="#D81A61" d="M12.431,13.002h0.94v1h-0.94V13.002z"/>
		<path fill="#D81A61" d="M22.222,22.467C23.313,21.406,24,19.889,24,18.198c0-3.195-2.447-5.795-5.455-5.795
			c-0.175,0-0.347,0.009-0.518,0.025c-0.016,0.001-0.023,0.018-0.038,0.021c-0.403-2.525-2.46-4.452-4.952-4.452
			c-2.78,0-5.037,2.395-5.037,5.35c0,1.479,0.564,2.815,1.476,3.784L8,18.699h5.109c0.239,2.969,2.627,5.295,5.436,5.295
			c0.005,0,0.011-0.001,0.017-0.001l-0.008,0.005h4.311h0.798l-0.563-0.6L22.222,22.467z M13.037,18.099L12.149,18.1h-1.113h-0.268
			H9.363l0.551-0.585l0.068-0.072l0.32-0.341l0.092-0.098l-0.503-0.314l-0.016,0.017c-0.81-0.86-1.312-2.048-1.312-3.358
			c0-2.619,2.007-4.75,4.473-4.75c2.467,0,4.474,2.131,4.474,4.75S15.504,18.099,13.037,18.099z M20.938,23.398h-0.312h-1.114
			l-0.968-0.004c-2.519,0-4.658-2.085-4.874-4.746c-0.001-0.007-0.006-0.011-0.007-0.018c0.578-0.077,1.121-0.266,1.622-0.531
			c1.649-0.872,2.788-2.66,2.788-4.752c0-0.114-0.024-0.221-0.032-0.334c0.015,0.001,0.023,0.014,0.039,0.012
			c0.152-0.016,0.308-0.023,0.464-0.023c2.697,0,4.892,2.332,4.892,5.196c0,1.525-0.633,2.886-1.621,3.836
			c-0.141,0.136-0.289,0.261-0.443,0.378l0.309,0.328l0.104,0.11l0.515,0.548H20.938z"/>
	</g>
</g>
</svg>
